<mxfile host="app.diagrams.net" modified="2021-07-21T09:03:33.899Z" agent="5.0 (Macintosh; Intel Mac OS X 10_15_7) AppleWebKit/537.36 (KHTML, like Gecko) Chrome/91.0.4472.114 Safari/537.36" etag="2jzRv6VqTfhCVUwsBY5k" version="14.9.0" type="github">
  <diagram id="bfBACtEWX-xEn6V3q3oX" name="AppLayerDesign">
    <mxGraphModel dx="1088" dy="560" grid="1" gridSize="10" guides="1" tooltips="1" connect="1" arrows="1" fold="1" page="1" pageScale="1" pageWidth="850" pageHeight="1100" math="0" shadow="0">
      <root>
        <mxCell id="0" />
        <mxCell id="1" parent="0" />
        <mxCell id="sB0TPc7eJq5igHLpq-I3-2" value="HardwareInfo" style="swimlane;fontStyle=1;align=center;verticalAlign=top;childLayout=stackLayout;horizontal=1;startSize=26;horizontalStack=0;resizeParent=1;resizeParentMax=0;resizeLast=0;collapsible=1;marginBottom=0;fillColor=#ffffff;gradientColor=none;html=1;" parent="1" vertex="1">
          <mxGeometry y="890" width="270" height="242" as="geometry" />
        </mxCell>
        <mxCell id="sB0TPc7eJq5igHLpq-I3-3" value="+ id: String" style="text;strokeColor=none;fillColor=none;align=left;verticalAlign=top;spacingLeft=4;spacingRight=4;overflow=hidden;rotatable=0;points=[[0,0.5],[1,0.5]];portConstraint=eastwest;" parent="sB0TPc7eJq5igHLpq-I3-2" vertex="1">
          <mxGeometry y="26" width="270" height="26" as="geometry" />
        </mxCell>
        <mxCell id="sB0TPc7eJq5igHLpq-I3-6" value="+ name: String" style="text;strokeColor=none;fillColor=none;align=left;verticalAlign=top;spacingLeft=4;spacingRight=4;overflow=hidden;rotatable=0;points=[[0,0.5],[1,0.5]];portConstraint=eastwest;" parent="sB0TPc7eJq5igHLpq-I3-2" vertex="1">
          <mxGeometry y="52" width="270" height="26" as="geometry" />
        </mxCell>
        <mxCell id="sB0TPc7eJq5igHLpq-I3-7" value="+ type: String" style="text;strokeColor=none;fillColor=none;align=left;verticalAlign=top;spacingLeft=4;spacingRight=4;overflow=hidden;rotatable=0;points=[[0,0.5],[1,0.5]];portConstraint=eastwest;" parent="sB0TPc7eJq5igHLpq-I3-2" vertex="1">
          <mxGeometry y="78" width="270" height="26" as="geometry" />
        </mxCell>
        <mxCell id="sB0TPc7eJq5igHLpq-I3-10" value="+ model: String" style="text;strokeColor=none;fillColor=none;align=left;verticalAlign=top;spacingLeft=4;spacingRight=4;overflow=hidden;rotatable=0;points=[[0,0.5],[1,0.5]];portConstraint=eastwest;" parent="sB0TPc7eJq5igHLpq-I3-2" vertex="1">
          <mxGeometry y="104" width="270" height="26" as="geometry" />
        </mxCell>
        <mxCell id="sB0TPc7eJq5igHLpq-I3-14" value="+ connectionInterface: String" style="text;strokeColor=none;fillColor=none;align=left;verticalAlign=top;spacingLeft=4;spacingRight=4;overflow=hidden;rotatable=0;points=[[0,0.5],[1,0.5]];portConstraint=eastwest;" parent="sB0TPc7eJq5igHLpq-I3-2" vertex="1">
          <mxGeometry y="130" width="270" height="26" as="geometry" />
        </mxCell>
        <mxCell id="sB0TPc7eJq5igHLpq-I3-12" value="+ actions: IHardwareActions" style="text;strokeColor=none;fillColor=none;align=left;verticalAlign=top;spacingLeft=4;spacingRight=4;overflow=hidden;rotatable=0;points=[[0,0.5],[1,0.5]];portConstraint=eastwest;" parent="sB0TPc7eJq5igHLpq-I3-2" vertex="1">
          <mxGeometry y="156" width="270" height="26" as="geometry" />
        </mxCell>
        <mxCell id="sB0TPc7eJq5igHLpq-I3-11" value="+ preferred: Boolean" style="text;strokeColor=none;fillColor=none;align=left;verticalAlign=top;spacingLeft=4;spacingRight=4;overflow=hidden;rotatable=0;points=[[0,0.5],[1,0.5]];portConstraint=eastwest;" parent="sB0TPc7eJq5igHLpq-I3-2" vertex="1">
          <mxGeometry y="182" width="270" height="26" as="geometry" />
        </mxCell>
        <mxCell id="sB0TPc7eJq5igHLpq-I3-8" value="+ isConnected: Boolean" style="text;strokeColor=none;fillColor=none;align=left;verticalAlign=top;spacingLeft=4;spacingRight=4;overflow=hidden;rotatable=0;points=[[0,0.5],[1,0.5]];portConstraint=eastwest;" parent="sB0TPc7eJq5igHLpq-I3-2" vertex="1">
          <mxGeometry y="208" width="270" height="26" as="geometry" />
        </mxCell>
        <mxCell id="sB0TPc7eJq5igHLpq-I3-4" value="" style="line;strokeWidth=1;fillColor=none;align=left;verticalAlign=middle;spacingTop=-1;spacingLeft=3;spacingRight=3;rotatable=0;labelPosition=right;points=[];portConstraint=eastwest;" parent="sB0TPc7eJq5igHLpq-I3-2" vertex="1">
          <mxGeometry y="234" width="270" height="8" as="geometry" />
        </mxCell>
        <mxCell id="BEAuEGR70jNAJFq-2iNE-39" style="edgeStyle=orthogonalEdgeStyle;rounded=0;orthogonalLoop=1;jettySize=auto;html=1;endArrow=open;endFill=0;" parent="1" source="sB0TPc7eJq5igHLpq-I3-15" target="BEAuEGR70jNAJFq-2iNE-32" edge="1">
          <mxGeometry relative="1" as="geometry" />
        </mxCell>
        <mxCell id="sB0TPc7eJq5igHLpq-I3-15" value="IHardwareUiController" style="swimlane;fontStyle=1;align=center;verticalAlign=top;childLayout=stackLayout;horizontal=1;startSize=26;horizontalStack=0;resizeParent=1;resizeParentMax=0;resizeLast=0;collapsible=1;marginBottom=0;fillColor=#ffffff;gradientColor=none;html=1;" parent="1" vertex="1">
          <mxGeometry x="360" y="1140" width="460" height="112" as="geometry" />
        </mxCell>
        <mxCell id="sB0TPc7eJq5igHLpq-I3-17" value="" style="line;strokeWidth=1;fillColor=none;align=left;verticalAlign=middle;spacingTop=-1;spacingLeft=3;spacingRight=3;rotatable=0;labelPosition=right;points=[];portConstraint=eastwest;" parent="sB0TPc7eJq5igHLpq-I3-15" vertex="1">
          <mxGeometry y="26" width="460" height="8" as="geometry" />
        </mxCell>
        <mxCell id="soiHAoaTrfv_u7LtwAv9-12" value="+ updateAvailableDevices(type:DeviceType,hardwareInfo: ArrayList&lt;IHardwareInfo&gt;)" style="text;strokeColor=none;fillColor=none;align=left;verticalAlign=top;spacingLeft=4;spacingRight=4;overflow=hidden;rotatable=0;points=[[0,0.5],[1,0.5]];portConstraint=eastwest;" parent="sB0TPc7eJq5igHLpq-I3-15" vertex="1">
          <mxGeometry y="34" width="460" height="26" as="geometry" />
        </mxCell>
        <mxCell id="soiHAoaTrfv_u7LtwAv9-13" value="+ getActivatedDevice(type:DeviceType) : hardwareInfo:HardwareInfo" style="text;strokeColor=none;fillColor=none;align=left;verticalAlign=top;spacingLeft=4;spacingRight=4;overflow=hidden;rotatable=0;points=[[0,0.5],[1,0.5]];portConstraint=eastwest;" parent="sB0TPc7eJq5igHLpq-I3-15" vertex="1">
          <mxGeometry y="60" width="460" height="26" as="geometry" />
        </mxCell>
        <mxCell id="soiHAoaTrfv_u7LtwAv9-14" value="+ setActivatedDevice(type:DeviceType,id:String,isPrefer:Boolean)" style="text;strokeColor=none;fillColor=none;align=left;verticalAlign=top;spacingLeft=4;spacingRight=4;overflow=hidden;rotatable=0;points=[[0,0.5],[1,0.5]];portConstraint=eastwest;" parent="sB0TPc7eJq5igHLpq-I3-15" vertex="1">
          <mxGeometry y="86" width="460" height="26" as="geometry" />
        </mxCell>
        <mxCell id="IjqAknxGJ5qbyW2yeyQR-3" value="CameraDeviceSetupManager" style="swimlane;fontStyle=1;align=center;verticalAlign=top;childLayout=stackLayout;horizontal=1;startSize=26;horizontalStack=0;resizeParent=1;resizeParentMax=0;resizeLast=0;collapsible=1;marginBottom=0;" parent="1" vertex="1">
          <mxGeometry x="690" y="410" width="327.5" height="60" as="geometry" />
        </mxCell>
        <mxCell id="IjqAknxGJ5qbyW2yeyQR-5" value="" style="line;strokeWidth=1;fillColor=none;align=left;verticalAlign=middle;spacingTop=-1;spacingLeft=3;spacingRight=3;rotatable=0;labelPosition=right;points=[];portConstraint=eastwest;" parent="IjqAknxGJ5qbyW2yeyQR-3" vertex="1">
          <mxGeometry y="26" width="327.5" height="8" as="geometry" />
        </mxCell>
        <mxCell id="IjqAknxGJ5qbyW2yeyQR-6" value="+ onAvailableDevicesUpdated(List&lt; IHardwareInfo&gt;)" style="text;strokeColor=none;fillColor=none;align=left;verticalAlign=top;spacingLeft=4;spacingRight=4;overflow=hidden;rotatable=0;points=[[0,0.5],[1,0.5]];portConstraint=eastwest;" parent="IjqAknxGJ5qbyW2yeyQR-3" vertex="1">
          <mxGeometry y="34" width="327.5" height="26" as="geometry" />
        </mxCell>
        <mxCell id="BEAuEGR70jNAJFq-2iNE-29" style="edgeStyle=orthogonalEdgeStyle;rounded=0;orthogonalLoop=1;jettySize=auto;html=1;entryX=0.5;entryY=0;entryDx=0;entryDy=0;endArrow=open;endFill=0;" parent="1" source="IjqAknxGJ5qbyW2yeyQR-7" target="BEAuEGR70jNAJFq-2iNE-6" edge="1">
          <mxGeometry relative="1" as="geometry" />
        </mxCell>
        <mxCell id="BEAuEGR70jNAJFq-2iNE-42" style="edgeStyle=orthogonalEdgeStyle;rounded=0;orthogonalLoop=1;jettySize=auto;html=1;endArrow=open;endFill=0;" parent="1" source="IjqAknxGJ5qbyW2yeyQR-7" target="IjqAknxGJ5qbyW2yeyQR-3" edge="1">
          <mxGeometry relative="1" as="geometry">
            <Array as="points">
              <mxPoint x="850" y="440" />
              <mxPoint x="850" y="440" />
            </Array>
          </mxGeometry>
        </mxCell>
        <mxCell id="IjqAknxGJ5qbyW2yeyQR-7" value="CameraPtzManager" style="swimlane;fontStyle=1;align=center;verticalAlign=top;childLayout=stackLayout;horizontal=1;startSize=26;horizontalStack=0;resizeParent=1;resizeParentMax=0;resizeLast=0;collapsible=1;marginBottom=0;" parent="1" vertex="1">
          <mxGeometry x="640" y="550" width="420" height="86" as="geometry" />
        </mxCell>
        <mxCell id="IjqAknxGJ5qbyW2yeyQR-9" value="" style="line;strokeWidth=1;fillColor=none;align=left;verticalAlign=middle;spacingTop=-1;spacingLeft=3;spacingRight=3;rotatable=0;labelPosition=right;points=[];portConstraint=eastwest;" parent="IjqAknxGJ5qbyW2yeyQR-7" vertex="1">
          <mxGeometry y="26" width="420" height="8" as="geometry" />
        </mxCell>
        <mxCell id="IjqAknxGJ5qbyW2yeyQR-10" value="+ loadCameraCapability()" style="text;strokeColor=none;fillColor=none;align=left;verticalAlign=top;spacingLeft=4;spacingRight=4;overflow=hidden;rotatable=0;points=[[0,0.5],[1,0.5]];portConstraint=eastwest;" parent="IjqAknxGJ5qbyW2yeyQR-7" vertex="1">
          <mxGeometry y="34" width="420" height="26" as="geometry" />
        </mxCell>
        <mxCell id="BEAuEGR70jNAJFq-2iNE-5" value="+ onCameraCapabilityUpdated(List&lt;CameraCapability&gt;)" style="text;strokeColor=none;fillColor=none;align=left;verticalAlign=top;spacingLeft=4;spacingRight=4;overflow=hidden;rotatable=0;points=[[0,0.5],[1,0.5]];portConstraint=eastwest;" parent="IjqAknxGJ5qbyW2yeyQR-7" vertex="1">
          <mxGeometry y="60" width="420" height="26" as="geometry" />
        </mxCell>
        <mxCell id="BEAuEGR70jNAJFq-2iNE-6" value="RcvIPtzDelegate" style="swimlane;fontStyle=1;align=center;verticalAlign=top;childLayout=stackLayout;horizontal=1;startSize=26;horizontalStack=0;resizeParent=1;resizeParentMax=0;resizeLast=0;collapsible=1;marginBottom=0;" parent="1" vertex="1">
          <mxGeometry x="640" y="680" width="420" height="60" as="geometry" />
        </mxCell>
        <mxCell id="BEAuEGR70jNAJFq-2iNE-7" value="" style="line;strokeWidth=1;fillColor=none;align=left;verticalAlign=middle;spacingTop=-1;spacingLeft=3;spacingRight=3;rotatable=0;labelPosition=right;points=[];portConstraint=eastwest;" parent="BEAuEGR70jNAJFq-2iNE-6" vertex="1">
          <mxGeometry y="26" width="420" height="8" as="geometry" />
        </mxCell>
        <mxCell id="BEAuEGR70jNAJFq-2iNE-8" value="+ onCameraCapabilityUpdated(List&lt;CameraCapability&gt;)" style="text;strokeColor=none;fillColor=none;align=left;verticalAlign=top;spacingLeft=4;spacingRight=4;overflow=hidden;rotatable=0;points=[[0,0.5],[1,0.5]];portConstraint=eastwest;" parent="BEAuEGR70jNAJFq-2iNE-6" vertex="1">
          <mxGeometry y="34" width="420" height="26" as="geometry" />
        </mxCell>
        <mxCell id="BEAuEGR70jNAJFq-2iNE-27" style="edgeStyle=orthogonalEdgeStyle;rounded=0;orthogonalLoop=1;jettySize=auto;html=1;entryX=0.5;entryY=1;entryDx=0;entryDy=0;entryPerimeter=0;dashed=1;endArrow=block;endFill=0;" parent="1" source="BEAuEGR70jNAJFq-2iNE-17" target="BEAuEGR70jNAJFq-2iNE-8" edge="1">
          <mxGeometry relative="1" as="geometry" />
        </mxCell>
        <mxCell id="BEAuEGR70jNAJFq-2iNE-31" style="edgeStyle=orthogonalEdgeStyle;rounded=0;orthogonalLoop=1;jettySize=auto;html=1;entryX=0.5;entryY=0;entryDx=0;entryDy=0;endArrow=open;endFill=0;" parent="1" edge="1">
          <mxGeometry relative="1" as="geometry">
            <mxPoint x="592" y="1030" as="sourcePoint" />
            <mxPoint x="592" y="1140" as="targetPoint" />
            <Array as="points">
              <mxPoint x="592" y="1110" />
              <mxPoint x="592" y="1110" />
            </Array>
          </mxGeometry>
        </mxCell>
        <mxCell id="BEAuEGR70jNAJFq-2iNE-38" style="edgeStyle=orthogonalEdgeStyle;rounded=0;orthogonalLoop=1;jettySize=auto;html=1;endArrow=block;endFill=0;dashed=1;" parent="1" source="BEAuEGR70jNAJFq-2iNE-17" target="BEAuEGR70jNAJFq-2iNE-32" edge="1">
          <mxGeometry relative="1" as="geometry">
            <mxPoint x="940" y="907" as="targetPoint" />
          </mxGeometry>
        </mxCell>
        <mxCell id="BEAuEGR70jNAJFq-2iNE-40" style="edgeStyle=orthogonalEdgeStyle;rounded=0;orthogonalLoop=1;jettySize=auto;html=1;endArrow=open;endFill=0;" parent="1" source="BEAuEGR70jNAJFq-2iNE-17" target="IjqAknxGJ5qbyW2yeyQR-7" edge="1">
          <mxGeometry relative="1" as="geometry">
            <Array as="points">
              <mxPoint x="600" y="850" />
              <mxPoint x="1130" y="850" />
              <mxPoint x="1130" y="593" />
            </Array>
          </mxGeometry>
        </mxCell>
        <mxCell id="BEAuEGR70jNAJFq-2iNE-17" value="HardwareStatusManager" style="swimlane;fontStyle=1;align=center;verticalAlign=top;childLayout=stackLayout;horizontal=1;startSize=26;horizontalStack=0;resizeParent=1;resizeParentMax=0;resizeLast=0;collapsible=1;marginBottom=0;" parent="1" vertex="1">
          <mxGeometry x="390" y="890" width="420" height="34" as="geometry" />
        </mxCell>
        <mxCell id="BEAuEGR70jNAJFq-2iNE-18" value="" style="line;strokeWidth=1;fillColor=none;align=left;verticalAlign=middle;spacingTop=-1;spacingLeft=3;spacingRight=3;rotatable=0;labelPosition=right;points=[];portConstraint=eastwest;" parent="BEAuEGR70jNAJFq-2iNE-17" vertex="1">
          <mxGeometry y="26" width="420" height="8" as="geometry" />
        </mxCell>
        <mxCell id="BEAuEGR70jNAJFq-2iNE-20" value="AudioDeviceSetupManager" style="swimlane;fontStyle=1;align=center;verticalAlign=top;childLayout=stackLayout;horizontal=1;startSize=26;horizontalStack=0;resizeParent=1;resizeParentMax=0;resizeLast=0;collapsible=1;marginBottom=0;" parent="1" vertex="1">
          <mxGeometry x="160" y="410" width="420" height="60" as="geometry" />
        </mxCell>
        <mxCell id="BEAuEGR70jNAJFq-2iNE-21" value="" style="line;strokeWidth=1;fillColor=none;align=left;verticalAlign=middle;spacingTop=-1;spacingLeft=3;spacingRight=3;rotatable=0;labelPosition=right;points=[];portConstraint=eastwest;" parent="BEAuEGR70jNAJFq-2iNE-20" vertex="1">
          <mxGeometry y="26" width="420" height="8" as="geometry" />
        </mxCell>
        <mxCell id="BEAuEGR70jNAJFq-2iNE-22" value="+ onAvailableDevicesUpdated(List&lt; IHardwareInfo&gt;)&#xa;" style="text;strokeColor=none;fillColor=none;align=left;verticalAlign=top;spacingLeft=4;spacingRight=4;overflow=hidden;rotatable=0;points=[[0,0.5],[1,0.5]];portConstraint=eastwest;" parent="BEAuEGR70jNAJFq-2iNE-20" vertex="1">
          <mxGeometry y="34" width="420" height="26" as="geometry" />
        </mxCell>
        <mxCell id="BEAuEGR70jNAJFq-2iNE-32" value="IHardwareDelegate" style="swimlane;fontStyle=1;align=center;verticalAlign=top;childLayout=stackLayout;horizontal=1;startSize=26;horizontalStack=0;resizeParent=1;resizeParentMax=0;resizeLast=0;collapsible=1;marginBottom=0;fillColor=#ffffff;gradientColor=none;html=1;" parent="1" vertex="1">
          <mxGeometry x="960" y="1023" width="520" height="86" as="geometry" />
        </mxCell>
        <mxCell id="BEAuEGR70jNAJFq-2iNE-33" value="" style="line;strokeWidth=1;fillColor=none;align=left;verticalAlign=middle;spacingTop=-1;spacingLeft=3;spacingRight=3;rotatable=0;labelPosition=right;points=[];portConstraint=eastwest;" parent="BEAuEGR70jNAJFq-2iNE-32" vertex="1">
          <mxGeometry y="26" width="520" height="8" as="geometry" />
        </mxCell>
        <mxCell id="BEAuEGR70jNAJFq-2iNE-34" value="+ onActivatedDeviceChanged(type:DeviceType,hardwareInfo: IHardwareInfo))" style="text;strokeColor=none;fillColor=none;align=left;verticalAlign=top;spacingLeft=4;spacingRight=4;overflow=hidden;rotatable=0;points=[[0,0.5],[1,0.5]];portConstraint=eastwest;" parent="BEAuEGR70jNAJFq-2iNE-32" vertex="1">
          <mxGeometry y="34" width="520" height="26" as="geometry" />
        </mxCell>
        <mxCell id="soiHAoaTrfv_u7LtwAv9-15" value="+ onAvailableDevicesUpdated(type:DeviceType,hardwareInfo: ArrayList&lt;IHardwareInfo&gt;)" style="text;strokeColor=none;fillColor=none;align=left;verticalAlign=top;spacingLeft=4;spacingRight=4;overflow=hidden;rotatable=0;points=[[0,0.5],[1,0.5]];portConstraint=eastwest;" parent="BEAuEGR70jNAJFq-2iNE-32" vertex="1">
          <mxGeometry y="60" width="520" height="26" as="geometry" />
        </mxCell>
        <mxCell id="BEAuEGR70jNAJFq-2iNE-45" style="edgeStyle=orthogonalEdgeStyle;rounded=0;orthogonalLoop=1;jettySize=auto;html=1;endArrow=open;endFill=0;" parent="1" source="BEAuEGR70jNAJFq-2iNE-43" target="sB0TPc7eJq5igHLpq-I3-15" edge="1">
          <mxGeometry relative="1" as="geometry" />
        </mxCell>
        <mxCell id="BEAuEGR70jNAJFq-2iNE-55" style="edgeStyle=orthogonalEdgeStyle;rounded=0;orthogonalLoop=1;jettySize=auto;html=1;entryX=0.5;entryY=0;entryDx=0;entryDy=0;endArrow=open;endFill=0;exitX=0;exitY=0.5;exitDx=0;exitDy=0;" parent="1" source="BEAuEGR70jNAJFq-2iNE-43" target="BEAuEGR70jNAJFq-2iNE-48" edge="1">
          <mxGeometry relative="1" as="geometry">
            <Array as="points">
              <mxPoint x="310" y="1347" />
            </Array>
          </mxGeometry>
        </mxCell>
        <mxCell id="BEAuEGR70jNAJFq-2iNE-58" style="edgeStyle=orthogonalEdgeStyle;rounded=0;orthogonalLoop=1;jettySize=auto;html=1;dashed=1;endArrow=block;endFill=0;" parent="1" source="BEAuEGR70jNAJFq-2iNE-43" target="BEAuEGR70jNAJFq-2iNE-32" edge="1">
          <mxGeometry relative="1" as="geometry" />
        </mxCell>
        <mxCell id="BEAuEGR70jNAJFq-2iNE-43" value="ControllerCameraService" style="swimlane;fontStyle=1;align=center;verticalAlign=top;childLayout=stackLayout;horizontal=1;startSize=26;horizontalStack=0;resizeParent=1;resizeParentMax=0;resizeLast=0;collapsible=1;marginBottom=0;" parent="1" vertex="1">
          <mxGeometry x="380" y="1331" width="420" height="34" as="geometry" />
        </mxCell>
        <mxCell id="BEAuEGR70jNAJFq-2iNE-44" value="" style="line;strokeWidth=1;fillColor=none;align=left;verticalAlign=middle;spacingTop=-1;spacingLeft=3;spacingRight=3;rotatable=0;labelPosition=right;points=[];portConstraint=eastwest;" parent="BEAuEGR70jNAJFq-2iNE-43" vertex="1">
          <mxGeometry y="26" width="420" height="8" as="geometry" />
        </mxCell>
        <mxCell id="BEAuEGR70jNAJFq-2iNE-48" value="ICameraControlCallback" style="swimlane;fontStyle=1;align=center;verticalAlign=top;childLayout=stackLayout;horizontal=1;startSize=26;horizontalStack=0;resizeParent=1;resizeParentMax=0;resizeLast=0;collapsible=1;marginBottom=0;" parent="1" vertex="1">
          <mxGeometry x="60" y="1470" width="500" height="86" as="geometry" />
        </mxCell>
        <mxCell id="BEAuEGR70jNAJFq-2iNE-49" value="" style="line;strokeWidth=1;fillColor=none;align=left;verticalAlign=middle;spacingTop=-1;spacingLeft=3;spacingRight=3;rotatable=0;labelPosition=right;points=[];portConstraint=eastwest;" parent="BEAuEGR70jNAJFq-2iNE-48" vertex="1">
          <mxGeometry y="26" width="500" height="8" as="geometry" />
        </mxCell>
        <mxCell id="BEAuEGR70jNAJFq-2iNE-51" value="+ onActivatedDeviceChanged(type:DeviceType,hardwareInfo: IHardwareInfo))" style="text;strokeColor=none;fillColor=none;align=left;verticalAlign=top;spacingLeft=4;spacingRight=4;overflow=hidden;rotatable=0;points=[[0,0.5],[1,0.5]];portConstraint=eastwest;" parent="BEAuEGR70jNAJFq-2iNE-48" vertex="1">
          <mxGeometry y="34" width="500" height="26" as="geometry" />
        </mxCell>
        <mxCell id="soiHAoaTrfv_u7LtwAv9-5" value="+ onAvailableDevicesUpdated(type:DeviceType,hardwareInfo: ArrayList&lt;IHardwareInfo&gt;)" style="text;strokeColor=none;fillColor=none;align=left;verticalAlign=top;spacingLeft=4;spacingRight=4;overflow=hidden;rotatable=0;points=[[0,0.5],[1,0.5]];portConstraint=eastwest;" parent="BEAuEGR70jNAJFq-2iNE-48" vertex="1">
          <mxGeometry y="60" width="500" height="26" as="geometry" />
        </mxCell>
        <mxCell id="BEAuEGR70jNAJFq-2iNE-56" style="edgeStyle=orthogonalEdgeStyle;rounded=0;orthogonalLoop=1;jettySize=auto;html=1;endArrow=open;endFill=0;" parent="1" source="BEAuEGR70jNAJFq-2iNE-52" target="BEAuEGR70jNAJFq-2iNE-43" edge="1">
          <mxGeometry relative="1" as="geometry">
            <Array as="points">
              <mxPoint x="600" y="1640" />
            </Array>
          </mxGeometry>
        </mxCell>
        <mxCell id="BEAuEGR70jNAJFq-2iNE-57" style="edgeStyle=orthogonalEdgeStyle;rounded=0;orthogonalLoop=1;jettySize=auto;html=1;endArrow=block;endFill=0;dashed=1;" parent="1" source="BEAuEGR70jNAJFq-2iNE-52" target="BEAuEGR70jNAJFq-2iNE-48" edge="1">
          <mxGeometry relative="1" as="geometry" />
        </mxCell>
        <mxCell id="BEAuEGR70jNAJFq-2iNE-52" value="UIViewController" style="swimlane;fontStyle=1;align=center;verticalAlign=top;childLayout=stackLayout;horizontal=1;startSize=26;horizontalStack=0;resizeParent=1;resizeParentMax=0;resizeLast=0;collapsible=1;marginBottom=0;" parent="1" vertex="1">
          <mxGeometry x="65" y="1650" width="490" height="60" as="geometry" />
        </mxCell>
        <mxCell id="BEAuEGR70jNAJFq-2iNE-53" value="" style="line;strokeWidth=1;fillColor=none;align=left;verticalAlign=middle;spacingTop=-1;spacingLeft=3;spacingRight=3;rotatable=0;labelPosition=right;points=[];portConstraint=eastwest;" parent="BEAuEGR70jNAJFq-2iNE-52" vertex="1">
          <mxGeometry y="26" width="490" height="8" as="geometry" />
        </mxCell>
        <mxCell id="BEAuEGR70jNAJFq-2iNE-54" value="+ setActivatedDevice(type:DeviceType,id:String,isInMeeting:Boolean)" style="text;strokeColor=none;fillColor=none;align=left;verticalAlign=top;spacingLeft=4;spacingRight=4;overflow=hidden;rotatable=0;points=[[0,0.5],[1,0.5]];portConstraint=eastwest;" parent="BEAuEGR70jNAJFq-2iNE-52" vertex="1">
          <mxGeometry y="34" width="490" height="26" as="geometry" />
        </mxCell>
        <mxCell id="soiHAoaTrfv_u7LtwAv9-7" value="HostCameraService" style="swimlane;fontStyle=1;align=center;verticalAlign=top;childLayout=stackLayout;horizontal=1;startSize=26;horizontalStack=0;resizeParent=1;resizeParentMax=0;resizeLast=0;collapsible=1;marginBottom=0;" parent="1" vertex="1">
          <mxGeometry x="390" y="1010" width="420" height="34" as="geometry" />
        </mxCell>
        <mxCell id="soiHAoaTrfv_u7LtwAv9-8" value="" style="line;strokeWidth=1;fillColor=none;align=left;verticalAlign=middle;spacingTop=-1;spacingLeft=3;spacingRight=3;rotatable=0;labelPosition=right;points=[];portConstraint=eastwest;" parent="soiHAoaTrfv_u7LtwAv9-7" vertex="1">
          <mxGeometry y="26" width="420" height="8" as="geometry" />
        </mxCell>
        <mxCell id="soiHAoaTrfv_u7LtwAv9-9" style="edgeStyle=orthogonalEdgeStyle;rounded=0;orthogonalLoop=1;jettySize=auto;html=1;endArrow=open;endFill=0;" parent="1" target="soiHAoaTrfv_u7LtwAv9-7" edge="1">
          <mxGeometry relative="1" as="geometry">
            <mxPoint x="610" y="924" as="sourcePoint" />
            <mxPoint x="610" y="994" as="targetPoint" />
            <Array as="points">
              <mxPoint x="593" y="924" />
            </Array>
          </mxGeometry>
        </mxCell>
        <mxCell id="soiHAoaTrfv_u7LtwAv9-10" style="rounded=0;orthogonalLoop=1;jettySize=auto;html=1;endArrow=open;endFill=0;exitX=0.5;exitY=0;exitDx=0;exitDy=0;entryX=0.46;entryY=1.077;entryDx=0;entryDy=0;entryPerimeter=0;" parent="1" source="BEAuEGR70jNAJFq-2iNE-17" target="BEAuEGR70jNAJFq-2iNE-22" edge="1">
          <mxGeometry relative="1" as="geometry">
            <mxPoint x="-70" y="793" as="sourcePoint" />
            <mxPoint x="390" y="496" as="targetPoint" />
          </mxGeometry>
        </mxCell>
      </root>
    </mxGraphModel>
  </diagram>
</mxfile>
